<svg width="1600" height="900" viewBox="0 0 1600 900" fill="none" xmlns="http://www.w3.org/2000/svg">
  <defs>
    <radialGradient id="g1" cx="0" cy="0" r="1" gradientUnits="userSpaceOnUse" gradientTransform="translate(392 242) rotate(32.7) scale(378 286)">
      <stop stop-color="#4CE7D0" stop-opacity="0.22"/>
      <stop offset="1" stop-color="#4CE7D0" stop-opacity="0"/>
    </radialGradient>
    <radialGradient id="g2" cx="0" cy="0" r="1" gradientUnits="userSpaceOnUse" gradientTransform="translate(1228 214) rotate(143.9) scale(388 296)">
      <stop stop-color="#FF7D8F" stop-opacity="0.22"/>
      <stop offset="1" stop-color="#FF7D8F" stop-opacity="0"/>
    </radialGradient>
    <linearGradient id="lane" x1="172" y1="450" x2="1428" y2="450" gradientUnits="userSpaceOnUse">
      <stop stop-color="#4CE7D0" stop-opacity="0.2"/>
      <stop offset="1" stop-color="#FF7D8F" stop-opacity="0.2"/>
    </linearGradient>
  </defs>
  <rect width="1600" height="900" fill="#040910"/>
  <rect width="1600" height="900" fill="url(#g1)"/>
  <rect width="1600" height="900" fill="url(#g2)"/>
  <path d="M172 450C398 228 639 216 812 216C985 216 1218 228 1428 368" stroke="url(#lane)" stroke-width="22" stroke-linecap="round"/>
  <path d="M172 450C398 672 639 684 812 684C985 684 1218 672 1428 532" stroke="url(#lane)" stroke-width="22" stroke-linecap="round"/>
  <path d="M160 450H1440" stroke="url(#lane)" stroke-width="22" stroke-linecap="round"/>
  <circle cx="160" cy="450" r="74" stroke="#4CE7D0" stroke-opacity="0.42" stroke-width="6"/>
  <circle cx="1440" cy="450" r="74" stroke="#FF7D8F" stroke-opacity="0.42" stroke-width="6"/>
  <circle cx="800" cy="450" r="94" stroke="#FFC85A" stroke-opacity="0.38" stroke-width="6"/>
  <circle cx="800" cy="216" r="78" stroke="#A3B3C3" stroke-opacity="0.22" stroke-width="5"/>
  <circle cx="800" cy="684" r="78" stroke="#A3B3C3" stroke-opacity="0.22" stroke-width="5"/>
</svg>
